<?xml version="1.0" encoding="UTF-8"?>
<svg version="1.1" xmlns="http://www.w3.org/2000/svg" width="1080" height="1080">
<path d="M0 0 C0.46484375 2.12890625 0.46484375 2.12890625 0 5 C-2.20556285 7.3454472 -4.80269256 9.10311822 -7.4375 10.9375 C-8.16727051 11.46311523 -8.89704102 11.98873047 -9.64892578 12.53027344 C-11.7538655 14.038276 -13.87366565 15.52237782 -16 17 C-16.98871094 17.69738281 -17.97742188 18.39476562 -18.99609375 19.11328125 C-24.6452864 23 -24.6452864 23 -27 23 C-27 23.66 -27 24.32 -27 25 C-33.75 29 -33.75 29 -36 29 C-36 29.66 -36 30.32 -36 31 C-37.98 31.495 -37.98 31.495 -40 32 C-40 32.66 -40 33.32 -40 34 C-41.57421875 35.3671875 -41.57421875 35.3671875 -43.6875 36.875 C-45.92930093 38.48774568 -48.13422934 40.10765834 -50.2890625 41.8359375 C-53.69655691 44.55604111 -57.18151791 47.15876978 -60.6875 49.75 C-61.36361328 50.25660156 -62.03972656 50.76320312 -62.73632812 51.28515625 C-63.38408203 51.76339844 -64.03183594 52.24164063 -64.69921875 52.734375 C-65.28533936 53.16975586 -65.87145996 53.60513672 -66.4753418 54.05371094 C-68 55 -68 55 -70 55 C-70 55.66 -70 56.32 -70 57 C-72.1171875 58.7265625 -72.1171875 58.7265625 -74.875 60.625 C-76.23238281 61.57246094 -76.23238281 61.57246094 -77.6171875 62.5390625 C-80 64 -80 64 -82 64 C-82 64.66 -82 65.32 -82 66 C-82.66 66 -83.32 66 -84 66 C-84 66.66 -84 67.32 -84 68 C-84.804375 68.28875 -85.60875 68.5775 -86.4375 68.875 C-89.1326468 69.73262568 -89.1326468 69.73262568 -90 72 C-91.485 72.495 -91.485 72.495 -93 73 C-93 73.66 -93 74.32 -93 75 C-94.4609375 76.2890625 -94.4609375 76.2890625 -96.375 77.625 C-97.00148438 78.07101563 -97.62796875 78.51703125 -98.2734375 78.9765625 C-100 80 -100 80 -102 80 C-102 80.66 -102 81.32 -102 82 C-103.56940801 83.43812673 -105.20874035 84.8003005 -106.875 86.125 C-107.88304687 86.93066406 -108.89109375 87.73632812 -109.9296875 88.56640625 C-110.94289063 89.36949219 -111.95609375 90.17257813 -113 91 C-114.27230469 92.03447266 -114.27230469 92.03447266 -115.5703125 93.08984375 C-120.85659116 97.3817581 -126.27982847 101.41581191 -131.84765625 105.3359375 C-134.09205379 106.82238543 -134.09205379 106.82238543 -135 109 C-135.66 109 -136.32 109 -137 109 C-137 109.66 -137 110.32 -137 111 C-137.66 111 -138.32 111 -139 111 C-139 111.66 -139 112.32 -139 113 C-140.65 113.33 -142.3 113.66 -144 114 C-144 114.66 -144 115.32 -144 116 C-144.66 116 -145.32 116 -146 116 C-146.4021875 116.8971875 -146.4021875 116.8971875 -146.8125 117.8125 C-147.99917406 119.99847854 -149.09599113 121.41332594 -151 123 C-151.66 123 -152.32 123 -153 123 C-153 123.66 -153 124.32 -153 125 C-154.73391951 126.60634015 -156.538091 128.1375287 -158.375 129.625 C-159.37273437 130.44226563 -160.37046875 131.25953125 -161.3984375 132.1015625 C-164 134 -164 134 -166 134 C-166 134.66 -166 135.32 -166 136 C-166.66 136 -167.32 136 -168 136 C-168.33 136.99 -168.66 137.98 -169 139 C-170.63671875 140.6484375 -170.63671875 140.6484375 -172.6875 142.375 C-173.7703125 143.29539062 -173.7703125 143.29539062 -174.875 144.234375 C-176.64206548 145.70259852 -178.41351608 147.16515906 -180.1875 148.625 C-183.57745787 151.48763109 -186.6657473 154.56691376 -189.6875 157.8125 C-191 159 -191 159 -193 159 C-193 159.66 -193 160.32 -193 161 C-193.66 161 -194.32 161 -195 161 C-195 161.66 -195 162.32 -195 163 C-195.66 163 -196.32 163 -197 163 C-197.33 163.99 -197.66 164.98 -198 166 C-198.66 166 -199.32 166 -200 166 C-200 166.66 -200 167.32 -200 168 C-200.66 168 -201.32 168 -202 168 C-202 168.66 -202 169.32 -202 170 C-203.609375 171.5859375 -203.609375 171.5859375 -205.75 173.375 C-208.06903702 175.33757727 -210.25219284 177.2588295 -212.375 179.4375 C-214 181 -214 181 -216 181 C-216 181.66 -216 182.32 -216 183 C-216.66 183 -217.32 183 -218 183 C-218.26804443 183.59474121 -218.53608887 184.18948242 -218.81225586 184.80224609 C-220.00979699 187.01812796 -221.20318983 188.42079528 -223.00390625 190.1640625 C-223.86725586 191.01097656 -223.86725586 191.01097656 -224.74804688 191.875 C-225.34681641 192.4525 -225.94558594 193.03 -226.5625 193.625 C-227.75349384 194.78160151 -228.94240005 195.94035778 -230.12890625 197.1015625 C-230.65556885 197.61025879 -231.18223145 198.11895508 -231.72485352 198.64306641 C-233.1164217 199.99400105 -233.1164217 199.99400105 -234 202 C-234.66 202 -235.32 202 -236 202 C-236 202.66 -236 203.32 -236 204 C-237.375 205.625 -237.375 205.625 -239 207 C-239.66 207 -240.32 207 -241 207 C-241 207.66 -241 208.32 -241 209 C-241.66 209 -242.32 209 -243 209 C-243.268125 209.5775 -243.53625 210.155 -243.8125 210.75 C-245.02929189 213.05550043 -246.30333879 215.02056192 -248 217 C-248.66 217 -249.32 217 -250 217 C-250 217.66 -250 218.32 -250 219 C-250.66 219 -251.32 219 -252 219 C-252 219.99 -252 220.98 -252 222 C-253.12131032 223.21016887 -254.25687044 224.41003617 -255.45800781 225.54101562 C-264.51144617 234.10709346 -273.08552615 243.62828923 -280 254 C-280.66 254 -281.32 254 -282 254 C-282 254.99 -282 255.98 -282 257 C-283.29132181 258.37406097 -284.6344971 259.69963182 -286 261 C-292.0263315 268.40021018 -297.56426828 276.11695349 -302.89453125 284.02734375 C-304.43547971 286.20296857 -305.97061214 288.1789338 -307.69921875 290.19140625 C-310.14263927 292.83364917 -310.14263927 292.83364917 -311 296 C-311.66 296 -312.32 296 -313 296 C-313.33 297.32 -313.66 298.64 -314 300 C-314.66 300 -315.32 300 -316 300 C-316.0825 300.680625 -316.165 301.36125 -316.25 302.0625 C-317.22332528 305.8746907 -318.95807455 308.64070329 -321 312 C-321.66 312 -322.32 312 -323 312 C-323.33 313.65 -323.66 315.3 -324 317 C-324.66 317 -325.32 317 -326 317 C-326.11988281 317.73863281 -326.23976563 318.47726562 -326.36328125 319.23828125 C-326.98728661 321.94485664 -327.80273518 323.79889272 -329.1875 326.1875 C-329.62964844 326.95835937 -330.07179688 327.72921875 -330.52734375 328.5234375 C-332.56672854 331.95306604 -334.65133856 335.35433311 -336.765625 338.73828125 C-337.92241574 340.85784403 -338.54663314 342.64141289 -339 345 C-339.66 345 -340.32 345 -341 345 C-341.12761719 345.73089844 -341.25523437 346.46179688 -341.38671875 347.21484375 C-341.96713515 349.85074752 -342.75995614 352.08419951 -343.8125 354.5625 C-346.16309283 360.28568254 -348.08970439 366.11788142 -350 372 C-350.51884858 373.58398484 -351.03950024 375.16738095 -351.5625 376.75 C-351.77003906 377.38421875 -351.97757813 378.0184375 -352.19140625 378.671875 C-352.88310897 380.66344419 -353.67425904 382.61999606 -354.484375 384.56640625 C-356.39711416 389.65484718 -357.04039055 394.81321621 -357.6875 400.1875 C-357.81560059 401.20183105 -357.94370117 402.21616211 -358.07568359 403.26123047 C-358.84848636 409.71707417 -359.27504805 415.97383071 -359.0078125 422.4765625 C-358.99962203 425.12208409 -359.44568577 427.42030684 -360 430 C-360 431.051875 -360 432.10375 -360 433.1875 C-360 436 -360 436 -361 438 C-360.34 438 -359.68 438 -359 438 C-359.04125 439.051875 -359.0825 440.10375 -359.125 441.1875 C-359.00259933 444.92072042 -358.40780451 446.63691145 -357 450 C-356.68720144 451.55840712 -356.39816834 453.12166005 -356.125 454.6875 C-355.27350592 459.16279446 -353.91140954 463.11358313 -352.12890625 467.296875 C-350.85356141 470.35064188 -349.75037369 473.45053417 -348.625 476.5625 C-346.70016945 481.64141425 -344.3884032 485.85427281 -341.13671875 490.1953125 C-340 492 -340 492 -340 495 C-339.42507813 495.22945312 -338.85015625 495.45890625 -338.2578125 495.6953125 C-335.41347065 497.33892872 -333.89218697 499.29023952 -331.875 501.875 C-331.19179688 502.73867188 -330.50859375 503.60234375 -329.8046875 504.4921875 C-328.27334827 506.62015241 -327.07445379 508.6184787 -326 511 C-325.34 511 -324.68 511 -324 511 C-324 511.66 -324 512.32 -324 513 C-323.34 513 -322.68 513 -322 513 C-322 513.66 -322 514.32 -322 515 C-321.34 515 -320.68 515 -320 515 C-318.74772516 516.47704212 -317.49833478 517.95827399 -316.31640625 519.4921875 C-314.88235909 521.26762944 -314.88235909 521.26762944 -312 523 C-312 523.66 -312 524.32 -312 525 C-311.42475586 525.27328125 -310.84951172 525.5465625 -310.25683594 525.828125 C-306.35139461 527.8560478 -302.84451449 530.47251385 -299.25 533 C-298.45722656 533.5465625 -297.66445313 534.093125 -296.84765625 534.65625 C-296.09871094 535.1821875 -295.34976563 535.708125 -294.578125 536.25 C-293.89137695 536.72953125 -293.20462891 537.2090625 -292.49707031 537.703125 C-292.00303711 538.13109375 -291.50900391 538.5590625 -291 539 C-291 539.66 -291 540.32 -291 541 C-290.278125 540.9175 -289.55625 540.835 -288.8125 540.75 C-286 541 -286 541 -283.78125 542.78125 C-280.59265753 545.3249586 -277.34645792 546.99400166 -273.6875 548.75 C-272.71973633 549.22373047 -272.71973633 549.22373047 -271.73242188 549.70703125 C-270.15765541 550.47691708 -268.5791996 551.23924891 -267 552 C-267 552.66 -267 553.32 -267 554 C-266.27296875 554.11730469 -265.5459375 554.23460937 -264.796875 554.35546875 C-261.95723458 555.00985516 -259.81976898 555.95623304 -257.25 557.3125 C-247.87800343 562.12290532 -238.44098717 565.6968373 -228.375 568.8125 C-222.3745583 570.70737633 -222.3745583 570.70737633 -220 572.5625 C-217.30006852 574.50307575 -214.67149053 574.83018309 -211.44140625 575.46875 C-197.49693252 578.50306748 -197.49693252 578.50306748 -194 582 C-190.67597303 582.5381758 -187.34275174 582.96620477 -184.00390625 583.40234375 C-181 584 -181 584 -179 586 C-176.71622707 586.63149671 -176.71622707 586.63149671 -174.0625 587.03515625 C-173.08539063 587.20466797 -172.10828125 587.37417969 -171.1015625 587.54882812 C-170.07804687 587.71833984 -169.05453125 587.88785156 -168 588.0625 C-165.97871503 588.40489651 -163.95785672 588.74982439 -161.9375 589.09765625 C-161.03902344 589.24726807 -160.14054687 589.39687988 -159.21484375 589.55102539 C-157 590 -157 590 -155 591 C-155.75 595.75 -155.75 595.75 -158 598 C-160.23046875 597.86328125 -160.23046875 597.86328125 -163.1875 597.3125 C-169.56913022 596.22174411 -175.9560361 595.28350314 -182.375 594.4375 C-183.3762793 594.30512939 -184.37755859 594.17275879 -185.40917969 594.03637695 C-190.92308909 593.32892349 -196.3864685 592.78844172 -201.9375 592.5 C-208.34573125 592.14673477 -214.48419548 591.08064073 -220.7578125 589.8203125 C-225.35926066 588.90435364 -229.98705118 588.20284579 -234.625 587.5 C-254.44744556 584.43749305 -254.44744556 584.43749305 -261.70703125 581.5 C-266.67956123 579.57767604 -271.72954421 579.08161706 -277 578.5 C-293.29862175 576.70137825 -293.29862175 576.70137825 -297 573 C-298.6780122 572.6564773 -300.36682346 572.36532409 -302.05859375 572.09765625 C-303.59676758 571.84532227 -303.59676758 571.84532227 -305.16601562 571.58789062 C-307.34258796 571.23833961 -309.51967394 570.89197169 -311.69726562 570.54882812 C-312.72400391 570.37931641 -313.75074219 570.20980469 -314.80859375 570.03515625 C-315.75532959 569.8844165 -316.70206543 569.73367676 -317.67749023 569.57836914 C-320 569 -320 569 -322 567 C-324.15383697 566.59190457 -326.32447547 566.26953401 -328.5 566 C-334.77777778 565.22222222 -334.77777778 565.22222222 -337 563 C-339.9631639 562.16401137 -342.94888749 561.53285055 -345.95703125 560.87890625 C-349.06159089 559.98221059 -351.25954383 558.67620135 -354 557 C-356.42095205 556.23694738 -356.42095205 556.23694738 -358.8125 555.8125 C-359.60269531 555.65394531 -360.39289063 555.49539063 -361.20703125 555.33203125 C-361.79871094 555.22246094 -362.39039063 555.11289062 -363 555 C-363 554.34 -363 553.68 -363 553 C-366.63 552.67 -370.26 552.34 -374 552 C-374 551.34 -374 550.68 -374 550 C-375.134375 549.9175 -376.26875 549.835 -377.4375 549.75 C-382.44434817 549.12414398 -386.49583533 547.17625465 -391 545 C-392.68506227 544.24453895 -394.3724971 543.49434297 -396.0625 542.75 C-397.375 542.16666667 -398.6875 541.58333333 -400 541 C-400 540.34 -400 539.68 -400 539 C-401.03125 538.71125 -402.0625 538.4225 -403.125 538.125 C-406.45007997 537.17691202 -409.72751453 536.11743406 -413 535 C-413 534.34 -413 533.68 -413 533 C-414.175625 533.061875 -414.175625 533.061875 -415.375 533.125 C-418 533 -418 533 -420 531 C-421.65973045 530.3162478 -423.32758817 529.6521203 -425 529 C-426.825818 528.04589715 -428.63811394 527.06556202 -430.4375 526.0625 C-434.25503019 523.95254075 -438.07812575 521.90793882 -442 520 C-442 519.34 -442 518.68 -442 518 C-443.32 517.67 -444.64 517.34 -446 517 C-446 516.34 -446 515.68 -446 515 C-446.57363281 514.87496094 -447.14726562 514.74992188 -447.73828125 514.62109375 C-450.05826154 513.98400072 -452.03541386 513.13248654 -454.1875 512.0625 C-454.88230469 511.72347656 -455.57710937 511.38445312 -456.29296875 511.03515625 C-458 510 -458 510 -459 508 C-459.99 507.67 -460.98 507.34 -462 507 C-462 506.34 -462 505.68 -462 505 C-462.7425 504.731875 -463.485 504.46375 -464.25 504.1875 C-466.89061949 503.04723249 -468.85552844 501.90619694 -471 500 C-471 499.34 -471 498.68 -471 498 C-471.556875 497.7525 -472.11375 497.505 -472.6875 497.25 C-475.42410913 495.77075182 -477.67650869 494.06532561 -480 492 C-480 491.34 -480 490.68 -480 490 C-480.57492187 489.76925781 -481.14984375 489.53851562 -481.7421875 489.30078125 C-484.57255799 487.67013528 -486.10572552 485.74806289 -488.125 483.1875 C-488.80820312 482.33542969 -489.49140625 481.48335937 -490.1953125 480.60546875 C-491.91859644 478.11752419 -493.00829653 475.84731357 -494 473 C-494.66 473 -495.32 473 -496 473 C-496 472.34 -496 471.68 -496 471 C-496.66 470.67 -497.32 470.34 -498 470 C-498.33 469.01 -498.66 468.02 -499 467 C-499.66 467 -500.32 467 -501 467 C-501.33 465.35 -501.66 463.7 -502 462 C-502.66 462 -503.32 462 -504 462 C-509.66802143 451.51416035 -514.12534824 441.0440102 -514.82421875 429.0234375 C-514.9385679 426.79606984 -514.9385679 426.79606984 -516 424 C-518.66640485 408.28725716 -517.37484216 391.75390383 -510.90625 377.1015625 C-509.63511229 374.15383799 -508.87322045 371.08537894 -508 368 C-507.32311093 366.35612655 -506.64306553 364.71302993 -505.91796875 363.08984375 C-504.29010448 359.38385487 -502.80125758 355.61848826 -501.28125 351.8671875 C-500.03232382 349.07233441 -498.73678064 346.52202721 -497 344 C-496.34 344 -495.68 344 -495 344 C-494.71125 343.2575 -494.4225 342.515 -494.125 341.75 C-493.17697356 339.43260203 -492.15154089 337.22082885 -491 335 C-490.34 335 -489.68 335 -489 335 C-488.67 333.68 -488.34 332.36 -488 331 C-487.34 331 -486.68 331 -486 331 C-485.67 329.35 -485.34 327.7 -485 326 C-484.34 326 -483.68 326 -483 326 C-483 325.01 -483 324.02 -483 323 C-482.34 323 -481.68 323 -481 323 C-481 322.01 -481 321.02 -481 320 C-479.69026002 318.6434836 -478.35197858 317.31442362 -477 316 C-475.948125 314.39125 -475.948125 314.39125 -474.875 312.75 C-474.25625 311.8425 -473.6375 310.935 -473 310 C-472.34 310 -471.68 310 -471 310 C-470.90106445 309.41589355 -470.80212891 308.83178711 -470.70019531 308.22998047 C-469.8631014 305.56400563 -468.7335907 304.3219372 -466.796875 302.3203125 C-466.14589844 301.63839844 -465.49492187 300.95648438 -464.82421875 300.25390625 C-464.13972656 299.55136719 -463.45523438 298.84882813 -462.75 298.125 C-461.40990564 296.73326424 -460.07133547 295.34005908 -458.734375 293.9453125 C-458.09435547 293.28047852 -457.45433594 292.61564453 -456.79492188 291.93066406 C-455.15910113 290.17113326 -453.64046555 288.36753878 -452.140625 286.4921875 C-451.43421875 285.66976563 -450.7278125 284.84734375 -450 284 C-449.34 284 -448.68 284 -448 284 C-448 283.34 -448 282.68 -448 282 C-447.34 282 -446.68 282 -446 282 C-445.731875 281.360625 -445.46375 280.72125 -445.1875 280.0625 C-444 278 -444 278 -441 277 C-441 276.34 -441 275.68 -441 275 C-440.34 275 -439.68 275 -439 275 C-439 274.34 -439 273.68 -439 273 C-438.34 273 -437.68 273 -437 273 C-437 272.34 -437 271.68 -437 271 C-436.34 271 -435.68 271 -435 271 C-435 270.34 -435 269.68 -435 269 C-433.625 267.375 -433.625 267.375 -432 266 C-431.34 266 -430.68 266 -430 266 C-430 265.34 -430 264.68 -430 264 C-428.63671875 262.625 -428.63671875 262.625 -426.6875 261 C-422.18462122 257.19418608 -417.89791178 253.18572561 -413.61328125 249.13671875 C-411.10326423 247.08443279 -409.06043096 245.99808649 -406 245 C-406 244.34 -406 243.68 -406 243 C-401.52941176 239 -401.52941176 239 -399 239 C-399 238.34 -399 237.68 -399 237 C-398.34 237 -397.68 237 -397 237 C-397 236.34 -397 235.68 -397 235 C-392.61538462 232 -392.61538462 232 -390 232 C-390 231.01 -390 230.02 -390 229 C-385.77777778 226 -385.77777778 226 -383 226 C-383 225.34 -383 224.68 -383 224 C-379.53846154 221 -379.53846154 221 -377 221 C-377 220.34 -377 219.68 -377 219 C-372.61538462 216 -372.61538462 216 -370 216 C-370 215.34 -370 214.68 -370 214 C-368.07648246 212.35083998 -366.1532387 210.82334521 -364.125 209.3125 C-363.53291748 208.86479248 -362.94083496 208.41708496 -362.33081055 207.95581055 C-357.30701831 204.17797838 -352.18164362 200.55767131 -347 197 C-345.20700345 195.75190833 -343.41532508 194.50192075 -341.625 193.25 C-340.83351563 192.69828125 -340.04203125 192.1465625 -339.2265625 191.578125 C-337.73592403 190.5216023 -336.27170897 189.42683233 -334.8359375 188.296875 C-333 187 -333 187 -331 187 C-331 186.34 -331 185.68 -331 185 C-326.61538462 182 -326.61538462 182 -324 182 C-324 181.34 -324 180.68 -324 180 C-322.49047852 178.85839844 -322.49047852 178.85839844 -320.37890625 177.609375 C-319.61191406 177.14958252 -318.84492188 176.68979004 -318.0546875 176.21606445 C-317.23226562 175.73226318 -316.40984375 175.24846191 -315.5625 174.75 C-313.90665839 173.76060873 -312.25170019 172.7697374 -310.59765625 171.77734375 C-309.80117676 171.30022949 -309.00469727 170.82311523 -308.18408203 170.33154297 C-304.88111778 168.31786456 -301.69296703 166.15278432 -298.53125 163.92578125 C-297 163 -297 163 -295 163 C-295 162.34 -295 161.68 -295 161 C-292.48046875 159.2734375 -292.48046875 159.2734375 -289.1875 157.375 C-288.10855469 156.74335938 -287.02960938 156.11171875 -285.91796875 155.4609375 C-283 154 -283 154 -280 154 C-280 153.34 -280 152.68 -280 152 C-275.61538462 149 -275.61538462 149 -273 149 C-273 148.34 -273 147.68 -273 147 C-270.734375 145.2734375 -270.734375 145.2734375 -267.75 143.375 C-266.77546875 142.74335938 -265.8009375 142.11171875 -264.796875 141.4609375 C-262 140 -262 140 -258 140 C-258 139.34 -258 138.68 -258 138 C-253.61538462 135 -253.61538462 135 -251 135 C-251 134.34 -251 133.68 -251 133 C-250.31035156 132.63648438 -249.62070312 132.27296875 -248.91015625 131.8984375 C-244.30829863 129.43653836 -239.80621374 126.95417204 -235.5 124 C-230.53675438 120.60874321 -225.3048358 117.81569944 -220 115 C-217.97713991 113.92045586 -215.95624515 112.83721961 -213.9375 111.75 C-213.03902344 111.27046875 -212.14054687 110.7909375 -211.21484375 110.296875 C-208.8956779 109.06428041 -208.8956779 109.06428041 -207 107 C-206.01 107 -205.02 107 -204 107 C-204 106.34 -204 105.68 -204 105 C-198.1604514 101.8052169 -192.31096777 98.6320511 -186.4375 95.5 C-182.429387 93.35092874 -178.50210044 91.12685672 -174.625 88.75 C-171.90211877 87.08284009 -169.27940497 85.61505208 -166.3125 84.4375 C-163.17368653 83.0753734 -160.76694543 81.39651661 -158.03515625 79.3671875 C-154.74646042 77.15789088 -151.19397294 75.52863739 -147.63671875 73.796875 C-143.23158972 71.64220584 -138.89932371 69.35074796 -134.5625 67.0625 C-133.74950439 66.63445068 -132.93650879 66.20640137 -132.09887695 65.76538086 C-128.3737647 63.79954653 -124.65685323 61.82102992 -120.9609375 59.80078125 C-120.35950928 59.47263428 -119.75808105 59.1444873 -119.13842773 58.80639648 C-117.5470354 57.93497955 -115.95893797 57.05755297 -114.37109375 56.1796875 C-112 55 -112 55 -110 55 C-109.67 54.34 -109.34 53.68 -109 53 C-106.4375 52.375 -106.4375 52.375 -104 52 C-104 51.34 -104 50.68 -104 50 C-102.25589844 49.19949219 -102.25589844 49.19949219 -100.4765625 48.3828125 C-91.17120024 44.06617467 -82.0771819 39.56396151 -73.22900391 34.36376953 C-68.32064217 31.53348444 -63.43310218 29.60188577 -58 28 C-58 27.34 -58 26.68 -58 26 C-56.02 25.67 -54.04 25.34 -52 25 C-52 24.34 -52 23.68 -52 23 C-51.45980225 22.76200684 -50.91960449 22.52401367 -50.36303711 22.27880859 C-32.80057001 14.58527229 -32.80057001 14.58527229 -16.06640625 5.28515625 C-10.72386355 1.96247847 -6.49096488 -0.64909649 0 0 Z " fill="#000000" transform="translate(658,147)"/>
<path d="M0 0 C33.75216138 3.25072046 33.75216138 3.25072046 39 5 C39 4.34 39 3.68 39 3 C50.50102014 3.65866124 61.90024764 5.14216899 73.32373047 6.58398438 C76.6514561 7.00333391 79.97996481 7.41601369 83.30859375 7.828125 C85.42713285 8.09335481 87.54562427 8.35896579 89.6640625 8.625 C90.65773834 8.74794434 91.65141418 8.87088867 92.67520142 8.99755859 C93.59401093 9.11437988 94.51282043 9.23120117 95.45947266 9.3515625 C96.266315 9.45291504 97.07315735 9.55426758 97.90444946 9.65869141 C100 10 100 10 103 11 C103 11.66 103 12.32 103 13 C104.00740234 13.05607422 104.00740234 13.05607422 105.03515625 13.11328125 C112.8072167 13.62473297 120.52154927 14.47868703 128.25 15.4375 C129.80473022 15.62082886 129.80473022 15.62082886 131.39086914 15.80786133 C132.84481079 15.99384888 132.84481079 15.99384888 134.328125 16.18359375 C135.64151855 16.34686157 135.64151855 16.34686157 136.98144531 16.51342773 C137.98062988 16.75428101 137.98062988 16.75428101 139 17 C139.33 17.66 139.66 18.32 140 19 C142.40581405 19.53169814 142.40581405 19.53169814 145.3125 19.78125 C146.38757813 19.90113281 147.46265625 20.02101563 148.5703125 20.14453125 C149.70210937 20.26183594 150.83390625 20.37914062 152 20.5 C154.23005862 20.73113364 156.45930611 20.97028234 158.6875 21.21875 C159.68136719 21.32123047 160.67523437 21.42371094 161.69921875 21.52929688 C162.45847656 21.68462891 163.21773437 21.83996094 164 22 C164.33 22.66 164.66 23.32 165 24 C167.51593752 24.42324183 169.96641508 24.7489659 172.5 25 C175.03358492 25.2510341 177.48406248 25.57675817 180 26 C180.33 26.66 180.66 27.32 181 28 C183.80980673 28.69227032 183.80980673 28.69227032 187.0625 29.125 C188.16722656 29.29257812 189.27195312 29.46015625 190.41015625 29.6328125 C191.26480469 29.75398438 192.11945313 29.87515625 193 30 C193 30.66 193 31.32 193 32 C198.94 32.495 198.94 32.495 205 33 C205.33 33.99 205.66 34.98 206 36 C207.5778125 35.9690625 207.5778125 35.9690625 209.1875 35.9375 C212.32704904 35.98896802 214.96883396 36.26517187 218 37 C218 37.66 218 38.32 218 39 C220.97 39.33 223.94 39.66 227 40 C227 40.66 227 41.32 227 42 C227.62648438 42.04898438 228.25296875 42.09796875 228.8984375 42.1484375 C229.71570313 42.22320312 230.53296875 42.29796875 231.375 42.375 C232.18710937 42.44460938 232.99921875 42.51421875 233.8359375 42.5859375 C236 43 236 43 238 45 C239.98821313 45.39764263 241.98944339 45.73775349 244 46 C244 46.66 244 47.32 244 48 C245.03125 48.103125 246.0625 48.20625 247.125 48.3125 C250.95083945 48.99127797 253.63370025 50.11158795 257 52 C257 52.66 257 53.32 257 54 C257.94875 53.979375 258.8975 53.95875 259.875 53.9375 C263 54 263 54 265 55 C265 55.66 265 56.32 265 57 C266.65 57 268.3 57 270 57 C270.33 57.66 270.66 58.32 271 59 C273.52733235 59.65555119 273.52733235 59.65555119 276 60 C276 60.66 276 61.32 276 62 C277.98 62.33 279.96 62.66 282 63 C282 63.66 282 64.32 282 65 C283.65 65 285.3 65 287 65 C287.33 65.66 287.66 66.32 288 67 C288.99 67.33 289.98 67.66 291 68 C291 68.66 291 69.32 291 70 C291.8353125 70.185625 291.8353125 70.185625 292.6875 70.375 C295.22114364 71.05976855 297.57921032 71.99133763 300 73 C300 73.66 300 74.32 300 75 C300.598125 75.12375 301.19625 75.2475 301.8125 75.375 C304 76 304 76 307 78 C307 78.66 307 79.32 307 80 C308.32 80 309.64 80 311 80 C311 80.66 311 81.32 311 82 C311.639375 82.268125 312.27875 82.53625 312.9375 82.8125 C315 84 315 84 316 87 C317.32 87 318.64 87 320 87 C320 87.66 320 88.32 320 89 C320.639375 89.268125 321.27875 89.53625 321.9375 89.8125 C324 91 324 91 325 94 C326.32 94 327.64 94 329 94 C332 98.07142857 332 98.07142857 332 101 C333.32 101 334.64 101 336 101 C336 101.66 336 102.32 336 103 C336.66 103 337.32 103 338 103 C341 107.38461538 341 107.38461538 341 110 C341.66 110 342.32 110 343 110 C343 110.66 343 111.32 343 112 C343.66 112.33 344.32 112.66 345 113 C345.33 113.99 345.66 114.98 346 116 C346.66 116 347.32 116 348 116 C351 120.38461538 351 120.38461538 351 123 C351.66 123 352.32 123 353 123 C353.33 124.98 353.66 126.96 354 129 C354.66 129 355.32 129 356 129 C356 130.32 356 131.64 356 133 C356.66 133 357.32 133 358 133 C358.33 135.31 358.66 137.62 359 140 C359.66 140 360.32 140 361 140 C361.12117188 140.6290625 361.24234375 141.258125 361.3671875 141.90625 C362.18924836 146.10508391 363.04368177 150.25102952 364.1875 154.375 C364.95180919 157.78499486 364.97750483 158.8525731 364 162 C364.66 162 365.32 162 366 162 C366.3170569 172.27499215 366.08691084 182.24699016 364.625 192.4375 C364.49891357 193.33041748 364.37282715 194.22333496 364.24291992 195.14331055 C363.61574632 199.21426586 362.84928232 202.31471648 361 206 C360.61250787 208.32495277 360.27017161 210.65851268 360 213 C359.01 213.33 358.02 213.66 357 214 C357 216.31 357 218.62 357 221 C356.01 221.33 355.02 221.66 354 222 C354.0825 222.66 354.165 223.32 354.25 224 C353.94787058 227.62555299 352.68904175 229.97072596 350.97265625 233.1328125 C349.86746821 235.13454486 349.86746821 235.13454486 349 238 C348.34 238.33 347.68 238.66 347 239 C346.34444881 241.52733235 346.34444881 241.52733235 346 244 C345.34 244 344.68 244 344 244 C343.67 245.32 343.34 246.64 343 248 C342.34 248 341.68 248 341 248 C341 248.99 341 249.98 341 251 C340.34 251 339.68 251 339 251 C338.67 252.98 338.34 254.96 338 257 C337.34 257 336.68 257 336 257 C336 257.99 336 258.98 336 260 C335.34 260 334.68 260 334 260 C333.67 261.32 333.34 262.64 333 264 C332.34 264 331.68 264 331 264 C330.896875 264.556875 330.79375 265.11375 330.6875 265.6875 C329.85101237 268.50114022 328.71782737 270.62146979 327 273 C326.01 273 325.02 273 324 273 C324 274.32 324 275.64 324 277 C323.34 277 322.68 277 322 277 C322 277.99 322 278.98 322 280 C320.35 280.66 318.7 281.32 317 282 C317 283.32 317 284.64 317 286 C316.34 286 315.68 286 315 286 C314.731875 286.639375 314.46375 287.27875 314.1875 287.9375 C313 290 313 290 310 291 C310 292.32 310 293.64 310 295 C308.68 295.33 307.36 295.66 306 296 C305.67 297.32 305.34 298.64 305 300 C304.34 300 303.68 300 303 300 C303 300.66 303 301.32 303 302 C302.34 302 301.68 302 301 302 C301 302.99 301 303.98 301 305 C300.34 305 299.68 305 299 305 C299 305.66 299 306.32 299 307 C297.35 307.66 295.7 308.32 294 309 C294 309.99 294 310.98 294 312 C293.34 312 292.68 312 292 312 C292 312.66 292 313.32 292 314 C291.34 314 290.68 314 290 314 C290 314.66 290 315.32 290 316 C288.625 317.625 288.625 317.625 287 319 C286.34 319 285.68 319 285 319 C285 319.66 285 320.32 285 321 C284.34 321 283.68 321 283 321 C283 321.66 283 322.32 283 323 C282.34 323 281.68 323 281 323 C280.67 323.99 280.34 324.98 280 326 C279.34 326 278.68 326 278 326 C278 326.66 278 327.32 278 328 C277.34 328 276.68 328 276 328 C276 328.66 276 329.32 276 330 C275.34 330 274.68 330 274 330 C273.731875 330.639375 273.46375 331.27875 273.1875 331.9375 C272 334 272 334 269 335 C269 335.66 269 336.32 269 337 C268.34 337 267.68 337 267 337 C267 337.66 267 338.32 267 339 C265.68 339.33 264.36 339.66 263 340 C263 340.66 263 341.32 263 342 C262.34 342.33 261.68 342.66 261 343 C260.67 343.99 260.34 344.98 260 346 C257.9375 346.6875 257.9375 346.6875 256 347 C256 347.66 256 348.32 256 349 C255.34 349 254.68 349 254 349 C254 349.66 254 350.32 254 351 C249.61538462 354 249.61538462 354 247 354 C247 355.32 247 356.64 247 358 C245.68 358.33 244.36 358.66 243 359 C243 359.66 243 360.32 243 361 C241.35 361.66 239.7 362.32 238 363 C238 363.66 238 364.32 238 365 C236.68 365.33 235.36 365.66 234 366 C234 366.66 234 367.32 234 368 C233.34 368 232.68 368 232 368 C232 368.66 232 369.32 232 370 C231.401875 370.2475 230.80375 370.495 230.1875 370.75 C227.71222841 372.16444091 226.66569196 373.72860188 225 376 C224.34 376 223.68 376 223 376 C223 376.66 223 377.32 223 378 C221.35 378.66 219.7 379.32 218 380 C218 380.66 218 381.32 218 382 C216.68 382.33 215.36 382.66 214 383 C214 383.66 214 384.32 214 385 C213.34 385 212.68 385 212 385 C212 385.66 212 386.32 212 387 C207.61538462 390 207.61538462 390 205 390 C205 390.66 205 391.32 205 392 C204.34 392 203.68 392 203 392 C203 392.66 203 393.32 203 394 C201.68 394.33 200.36 394.66 199 395 C199 395.66 199 396.32 199 397 C197.7934375 397.433125 197.7934375 397.433125 196.5625 397.875 C193.8673532 398.73262568 193.8673532 398.73262568 193 401 C192.01 401.33 191.02 401.66 190 402 C190 402.66 190 403.32 190 404 C188.5390625 405.2890625 188.5390625 405.2890625 186.625 406.625 C185.99851562 407.07101562 185.37203125 407.51703125 184.7265625 407.9765625 C183 409 183 409 181 409 C181 409.66 181 410.32 181 411 C179.68 411.33 178.36 411.66 177 412 C177 412.66 177 413.32 177 414 C175.54462432 414.83848804 174.08559627 415.67063934 172.625 416.5 C171.81289063 416.9640625 171.00078125 417.428125 170.1640625 417.90625 C168 419 168 419 166 419 C166 419.66 166 420.32 166 421 C164.68 421.33 163.36 421.66 162 422 C162 422.66 162 423.32 162 424 C161.34 424 160.68 424 160 424 C160 424.66 160 425.32 160 426 C158.35 426.33 156.7 426.66 155 427 C155 427.66 155 428.32 155 429 C154.34 429 153.68 429 153 429 C153 429.66 153 430.32 153 431 C151.68 431.33 150.36 431.66 149 432 C149 432.66 149 433.32 149 434 C145.63316085 436.43160605 144.26649636 437 140 437 C140 437.66 140 438.32 140 439 C139.34 439 138.68 439 138 439 C138 439.66 138 440.32 138 441 C137.34 441 136.68 441 136 441 C135.67 441.66 135.34 442.32 135 443 C131.42307692 446 131.42307692 446 129 446 C128.67 446.66 128.34 447.32 128 448 C127.01 448.33 126.02 448.66 125 449 C125 449.66 125 450.32 125 451 C123.730447 451.64834654 122.45930294 452.29357815 121.1875 452.9375 C120.47980469 453.29714844 119.77210938 453.65679688 119.04296875 454.02734375 C117 455 117 455 114 456 C113.67 456.66 113.34 457.32 113 458 C112.01 458.33 111.02 458.66 110 459 C110 459.66 110 460.32 110 461 C108.54462432 461.83848804 107.08559627 462.67063934 105.625 463.5 C104.81289063 463.9640625 104.00078125 464.428125 103.1640625 464.90625 C101 466 101 466 99 466 C98.67 466.66 98.34 467.32 98 468 C97.01 468.33 96.02 468.66 95 469 C95 469.66 95 470.32 95 471 C93.35 471.33 91.7 471.66 90 472 C90 472.66 90 473.32 90 474 C88.68 474 87.36 474 86 474 C86 474.66 86 475.32 86 476 C84.68 476.33 83.36 476.66 82 477 C82 477.66 82 478.32 82 479 C81.34 479 80.68 479 80 479 C80 479.66 80 480.32 80 481 C78.02 481.33 76.04 481.66 74 482 C74 482.66 74 483.32 74 484 C73.01 484 72.02 484 71 484 C71 484.66 71 485.32 71 486 C69.68 486.33 68.36 486.66 67 487 C67 487.66 67 488.32 67 489 C65.730447 489.64834654 64.45930294 490.29357815 63.1875 490.9375 C62.47980469 491.29714844 61.77210938 491.65679688 61.04296875 492.02734375 C59 493 59 493 56 494 C55.67 494.66 55.34 495.32 55 496 C52.4375 496.625 52.4375 496.625 50 497 C50 497.66 50 498.32 50 499 C48.68 499.33 47.36 499.66 46 500 C46 500.66 46 501.32 46 502 C42.63316085 504.43160605 41.26649636 505 37 505 C37 505.66 37 506.32 37 507 C36.34 507 35.68 507 35 507 C35 507.66 35 508.32 35 509 C33.02 509.33 31.04 509.66 29 510 C29 510.66 29 511.32 29 512 C24.61538462 515 24.61538462 515 22 515 C22 515.66 22 516.32 22 517 C20.02 517.33 18.04 517.66 16 518 C16 518.66 16 519.32 16 520 C15.34 520 14.68 520 14 520 C14 520.66 14 521.32 14 522 C11.69 522.33 9.38 522.66 7 523 C7 523.66 7 524.32 7 525 C6.34 525 5.68 525 5 525 C5 525.66 5 526.32 5 527 C3.21118264 528.00508801 1.41885304 529.00392736 -0.375 530 C-1.87160156 530.8353125 -1.87160156 530.8353125 -3.3984375 531.6875 C-6 533 -6 533 -8 533 C-8 533.66 -8 534.32 -8 535 C-9.98 535.33 -11.96 535.66 -14 536 C-14 536.66 -14 537.32 -14 538 C-15.45537568 538.83848804 -16.91440373 539.67063934 -18.375 540.5 C-19.18710937 540.9640625 -19.99921875 541.428125 -20.8359375 541.90625 C-23 543 -23 543 -25 543 C-25.33 543.66 -25.66 544.32 -26 545 C-28.5625 545.625 -28.5625 545.625 -31 546 C-31 546.66 -31 547.32 -31 548 C-32.78881736 549.00508801 -34.58114696 550.00392736 -36.375 551 C-37.87160156 551.8353125 -37.87160156 551.8353125 -39.3984375 552.6875 C-42 554 -42 554 -44 554 C-44 554.66 -44 555.32 -44 556 C-45.32 556 -46.64 556 -48 556 C-48.33 556.66 -48.66 557.32 -49 558 C-55.35294118 562 -55.35294118 562 -59 562 C-59 562.66 -59 563.32 -59 564 C-59.66 564 -60.32 564 -61 564 C-61 564.66 -61 565.32 -61 566 C-62.98 566.33 -64.96 566.66 -67 567 C-67 567.66 -67 568.32 -67 569 C-68.98 569.33 -70.96 569.66 -73 570 C-73 570.66 -73 571.32 -73 572 C-73.99 572 -74.98 572 -76 572 C-76 572.66 -76 573.32 -76 574 C-77.98 574.33 -79.96 574.66 -82 575 C-82 575.66 -82 576.32 -82 577 C-82.66 577 -83.32 577 -84 577 C-84 577.66 -84 578.32 -84 579 C-85.41225926 579.67595315 -86.83002905 580.34040059 -88.25 581 C-89.03890625 581.37125 -89.8278125 581.7425 -90.640625 582.125 C-93 583 -93 583 -97 583 C-97 583.66 -97 584.32 -97 585 C-97.66 585 -98.32 585 -99 585 C-99 585.66 -99 586.32 -99 587 C-100.26691507 587.67408308 -101.53870749 588.33900497 -102.8125 589 C-103.52019531 589.37125 -104.22789062 589.7425 -104.95703125 590.125 C-107 591 -107 591 -110 591 C-110 591.66 -110 592.32 -110 593 C-115.75 596 -115.75 596 -118 596 C-118 596.66 -118 597.32 -118 598 C-119.98 598.33 -121.96 598.66 -124 599 C-124 599.66 -124 600.32 -124 601 C-124.99 601 -125.98 601 -127 601 C-127 601.66 -127 602.32 -127 603 C-128.65 602.67 -130.3 602.34 -132 602 C-131.6875 600.0625 -131.6875 600.0625 -131 598 C-130.01 597.67 -129.02 597.34 -128 597 C-128 596.34 -128 595.68 -128 595 C-123.61538462 592 -123.61538462 592 -121 592 C-121 591.34 -121 590.68 -121 590 C-120.34 590 -119.68 590 -119 590 C-119 589.34 -119 588.68 -119 588 C-117.68 587.67 -116.36 587.34 -115 587 C-115 586.34 -115 585.68 -115 585 C-114.195625 584.71125 -113.39125 584.4225 -112.5625 584.125 C-109.8673532 583.26737432 -109.8673532 583.26737432 -109 581 C-108.01 580.67 -107.02 580.34 -106 580 C-106 579.34 -106 578.68 -106 578 C-105.34 578 -104.68 578 -104 578 C-104 577.34 -104 576.68 -104 576 C-102.35 575.67 -100.7 575.34 -99 575 C-99 574.34 -99 573.68 -99 573 C-98.34 573 -97.68 573 -97 573 C-97 572.34 -97 571.68 -97 571 C-96.071875 570.87625 -96.071875 570.87625 -95.125 570.75 C-92.82027141 570.20605562 -92.82027141 570.20605562 -91.9375 568 C-91.628125 567.34 -91.31875 566.68 -91 566 C-90.01 565.67 -89.02 565.34 -88 565 C-88 564.34 -88 563.68 -88 563 C-87.34 563 -86.68 563 -86 563 C-86 562.34 -86 561.68 -86 561 C-84.5390625 559.7109375 -84.5390625 559.7109375 -82.625 558.375 C-81.68527344 557.70597656 -81.68527344 557.70597656 -80.7265625 557.0234375 C-79 556 -79 556 -77 556 C-77 555.34 -77 554.68 -77 554 C-75.68 553.67 -74.36 553.34 -73 553 C-73 552.34 -73 551.68 -73 551 C-72.34 551 -71.68 551 -71 551 C-71 550.34 -71 549.68 -71 549 C-66.61538462 546 -66.61538462 546 -64 546 C-64 545.34 -64 544.68 -64 544 C-63.34 544 -62.68 544 -62 544 C-62 543.34 -62 542.68 -62 542 C-60.68 541.67 -59.36 541.34 -58 541 C-58 540.34 -58 539.68 -58 539 C-55.625 536.375 -55.625 536.375 -53 534 C-52.34 534 -51.68 534 -51 534 C-51 533.34 -51 532.68 -51 532 C-50.195625 531.71125 -49.39125 531.4225 -48.5625 531.125 C-45.8673532 530.26737432 -45.8673532 530.26737432 -45 528 C-44.01 527.67 -43.02 527.34 -42 527 C-42 526.34 -42 525.68 -42 525 C-41.34 525 -40.68 525 -40 525 C-40 524.34 -40 523.68 -40 523 C-38.68 522.67 -37.36 522.34 -36 522 C-36 521.34 -36 520.68 -36 520 C-35.01 520 -34.02 520 -33 520 C-33 519.34 -33 518.68 -33 518 C-32.34 518 -31.68 518 -31 518 C-31 517.01 -31 516.02 -31 515 C-30.34 515 -29.68 515 -29 515 C-29 514.34 -29 513.68 -29 513 C-28.195625 512.71125 -27.39125 512.4225 -26.5625 512.125 C-23.8673532 511.26737432 -23.8673532 511.26737432 -23 509 C-22.01 508.67 -21.02 508.34 -20 508 C-19.29848848 506.6846659 -18.63474075 505.34882408 -18 504 C-16.5 502.25 -16.5 502.25 -15 501 C-14.34 501 -13.68 501 -13 501 C-13 500.34 -13 499.68 -13 499 C-12.34 499 -11.68 499 -11 499 C-11 498.34 -11 497.68 -11 497 C-9.68 496.67 -8.36 496.34 -7 496 C-7 495.34 -7 494.68 -7 494 C-5.35 493.34 -3.7 492.68 -2 492 C-2 491.01 -2 490.02 -2 489 C-1.34 489 -0.68 489 0 489 C0 488.34 0 487.68 0 487 C0.66 487 1.32 487 2 487 C2 486.34 2 485.68 2 485 C3.65 484.67 5.3 484.34 7 484 C7 483.01 7 482.02 7 481 C7.66 481 8.32 481 9 481 C9.66 479.68 10.32 478.36 11 477 C11.66 477 12.32 477 13 477 C13 476.34 13 475.68 13 475 C13.99 475 14.98 475 16 475 C16 474.34 16 473.68 16 473 C16.66 473 17.32 473 18 473 C18.3403125 471.824375 18.3403125 471.824375 18.6875 470.625 C20 468 20 468 22.625 466.6875 C23.40875 466.460625 24.1925 466.23375 25 466 C25 465.34 25 464.68 25 464 C27.76275839 461.00701175 30.58523191 458.23726185 34 456 C34.66 456 35.32 456 36 456 C36.103125 455.401875 36.20625 454.80375 36.3125 454.1875 C37.10886799 451.65360186 38.03130138 450.74154109 40 449 C40.7734375 448.1646875 40.7734375 448.1646875 41.5625 447.3125 C43 446 43 446 45 446 C45 445.01 45 444.02 45 443 C46.32 442.67 47.64 442.34 49 442 C49 441.34 49 440.68 49 440 C49.66 439.67 50.32 439.34 51 439 C51.33 438.01 51.66 437.02 52 436 C54.0625 435.3125 54.0625 435.3125 56 435 C56 434.34 56 433.68 56 433 C56.66 433 57.32 433 58 433 C58.33 431.68 58.66 430.36 59 429 C60.32 428.67 61.64 428.34 63 428 C63 427.34 63 426.68 63 426 C63.66 426 64.32 426 65 426 C65.33 424.68 65.66 423.36 66 422 C66.66 422 67.32 422 68 422 C68.33 421.34 68.66 420.68 69 420 C71.0664616 415.97039987 72.90937814 413.99286706 77 412 C77.66 412 78.32 412 79 412 C79 410.68 79 409.36 79 408 C79.66 408 80.32 408 81 408 C81.268125 407.360625 81.53625 406.72125 81.8125 406.0625 C83 404 83 404 86 403 C86 402.34 86 401.68 86 401 C86.66 401 87.32 401 88 401 C88 400.01 88 399.02 88 398 C88.66 398 89.32 398 90 398 C90 397.34 90 396.68 90 396 C90.66 395.67 91.32 395.34 92 395 C92.33 394.01 92.66 393.02 93 392 C93.66 392 94.32 392 95 392 C95 391.34 95 390.68 95 390 C95.66 390 96.32 390 97 390 C97.268125 389.360625 97.53625 388.72125 97.8125 388.0625 C99 386 99 386 102 385 C102 384.01 102 383.02 102 382 C102.66 382 103.32 382 104 382 C104 381.34 104 380.68 104 380 C104.66 380 105.32 380 106 380 C106.33 378.68 106.66 377.36 107 376 C107.66 376 108.32 376 109 376 C109 375.34 109 374.68 109 374 C109.66 374 110.32 374 111 374 C111 373.01 111 372.02 111 371 C111.66 371 112.32 371 113 371 C113.309375 370.38125 113.61875 369.7625 113.9375 369.125 C114.625 367.75 115.3125 366.375 116 365 C116.66 365 117.32 365 118 365 C118 364.01 118 363.02 118 362 C118.66 362 119.32 362 120 362 C120 361.34 120 360.68 120 360 C120.99 360 121.98 360 123 360 C123.144375 359.401875 123.28875 358.80375 123.4375 358.1875 C124.72125436 353.19512195 124.72125436 353.19512195 126.875 351.6875 C129.61086522 349.51490115 130.47375883 347.11607572 132 344 C133.31266518 342.64631404 134.64567325 341.31200404 136 340 C137.00568242 338.33675599 138.00664799 336.67063747 139 335 C139.66 334.67 140.32 334.34 141 334 C141.33 333.01 141.66 332.02 142 331 C142.66 331 143.32 331 144 331 C144 330.01 144 329.02 144 328 C144.66 328 145.32 328 146 328 C146.33 326.68 146.66 325.36 147 324 C147.66 324 148.32 324 149 324 C149.12375 323.401875 149.2475 322.80375 149.375 322.1875 C150 320 150 320 152 317 C152.66 317 153.32 317 154 317 C154 316.34 154 315.68 154 315 C154.66 315 155.32 315 156 315 C156.12375 314.2575 156.2475 313.515 156.375 312.75 C156.95486701 310.19858515 157.73708739 308.2732427 159 306 C159.66 306 160.32 306 161 306 C161 304.68 161 303.36 161 302 C161.66 302 162.32 302 163 302 C163.33 301.01 163.66 300.02 164 299 C164.66 299 165.32 299 166 299 C166 297.68 166 296.36 166 295 C166.66 295 167.32 295 168 295 C168.33 293.68 168.66 292.36 169 291 C169.66 291 170.32 291 171 291 C171 289.35 171 287.7 171 286 C171.66 286 172.32 286 173 286 C173.33 284.68 173.66 283.36 174 282 C174.66 282 175.32 282 176 282 C176 280.68 176 279.36 176 278 C176.66 278 177.32 278 178 278 C178.33 276.35 178.66 274.7 179 273 C179.66 273 180.32 273 181 273 C180.938125 271.824375 180.938125 271.824375 180.875 270.625 C181 268 181 268 183 266 C183.6425235 263.93125966 183.6425235 263.93125966 184 262 C184.66 262 185.32 262 186 262 C186.33 260.02 186.66 258.04 187 256 C187.66 256 188.32 256 189 256 C189 254.35 189 252.7 189 251 C189.66 251 190.32 251 191 251 C191.33 249.02 191.66 247.04 192 245 C192.66 245 193.32 245 194 245 C194.33 243.02 194.66 241.04 195 239 C195.66 239 196.32 239 197 239 C197.33 236.03 197.66 233.06 198 230 C198.66 230 199.32 230 200 230 C200.33 226.7 200.66 223.4 201 220 C201.66 220 202.32 220 203 220 C203.06058594 219.22914063 203.12117188 218.45828125 203.18359375 217.6640625 C203.30927734 216.15972656 203.30927734 216.15972656 203.4375 214.625 C203.51871094 213.62726563 203.59992188 212.62953125 203.68359375 211.6015625 C204 209 204 209 205 207 C205.66 207 206.32 207 207 207 C207.04898437 206.14921875 207.09796875 205.2984375 207.1484375 204.421875 C207.68104922 195.7898919 208.44113036 187.20927759 209.42724609 178.61621094 C209.51570801 177.79926758 209.60416992 176.98232422 209.6953125 176.140625 C209.77797363 175.41391602 209.86063477 174.68720703 209.94580078 173.93847656 C210.11693691 171.77977945 210.11693691 171.77977945 209 169 C209.0859375 166.80859375 209.0859375 166.80859375 209.375 164.4375 C209.46523438 163.65246094 209.55546875 162.86742187 209.6484375 162.05859375 C210 160 210 160 211 158 C210.34 158 209.68 158 209 158 C209.33 155.36 209.66 152.72 210 150 C209.34 150 208.68 150 208 150 C208.33 147.36 208.66 144.72 209 142 C208.34 142 207.68 142 207 142 C206.86722656 141.38511719 206.73445313 140.77023437 206.59765625 140.13671875 C206.42105469 139.32847656 206.24445313 138.52023437 206.0625 137.6875 C205.88847656 136.88699219 205.71445312 136.08648437 205.53515625 135.26171875 C205.00113841 132.854599 205.00113841 132.854599 204 130 C204.33 129.34 204.66 128.68 205 128 C204.34 128 203.68 128 203 128 C203 126.68 203 125.36 203 124 C202.34 124 201.68 124 201 124 C200.67 121.69 200.34 119.38 200 117 C199.34 117 198.68 117 198 117 C197.67 115.02 197.34 113.04 197 111 C196.34 111 195.68 111 195 111 C194.67 109.02 194.34 107.04 194 105 C193.34 105 192.68 105 192 105 C189 100.61538462 189 100.61538462 189 98 C188.34 98 187.68 98 187 98 C187 96.68 187 95.36 187 94 C186.01 94 185.02 94 184 94 C184 93.34 184 92.68 184 92 C183.34 92 182.68 92 182 92 C181.566875 90.7934375 181.566875 90.7934375 181.125 89.5625 C180.26737432 86.8673532 180.26737432 86.8673532 178 86 C177.67 85.01 177.34 84.02 177 83 C176.34 83 175.68 83 175 83 C175 82.34 175 81.68 175 81 C174.34 81 173.68 81 173 81 C173 80.34 173 79.68 173 79 C172.01 78.67 171.02 78.34 170 78 C170 77.34 170 76.68 170 76 C169.34 76 168.68 76 168 76 C168 75.34 168 74.68 168 74 C167.34 74 166.68 74 166 74 C166 73.34 166 72.68 166 72 C165.01 72 164.02 72 163 72 C162.34 70.35 161.68 68.7 161 67 C159.68 67 158.36 67 157 67 C157 66.34 157 65.68 157 65 C156.01 65 155.02 65 154 65 C153.67 64.34 153.34 63.68 153 63 C152.01 62.67 151.02 62.34 150 62 C150 61.34 150 60.68 150 60 C149.401875 59.87625 148.80375 59.7525 148.1875 59.625 C146 59 146 59 143 57 C143 56.34 143 55.68 143 55 C141.68 55 140.36 55 139 55 C139 54.34 139 53.68 139 53 C136.03 52.01 133.06 51.02 130 50 C130 49.34 130 48.68 130 48 C128.68 47.67 127.36 47.34 126 47 C126 46.34 126 45.68 126 45 C124.35 45 122.7 45 121 45 C120.67 44.34 120.34 43.68 120 43 C117.97536745 42.34786708 117.97536745 42.34786708 116 42 C116 41.34 116 40.68 116 40 C114.35 39.67 112.7 39.34 111 39 C111 38.34 111 37.68 111 37 C109.35 37 107.7 37 106 37 C106 36.34 106 35.68 106 35 C103.36 34.67 100.72 34.34 98 34 C98 33.34 98 32.68 98 32 C95.69 31.67 93.38 31.34 91 31 C91 30.34 91 29.68 91 29 C88.03 28.67 85.06 28.34 82 28 C82 27.34 82 26.68 82 26 C79.36 25.67 76.72 25.34 74 25 C74 24.34 74 23.68 74 23 C72.82630859 22.92652344 72.82630859 22.92652344 71.62890625 22.8515625 C70.61699219 22.77679688 69.60507812 22.70203125 68.5625 22.625 C67.55316406 22.55539062 66.54382813 22.48578125 65.50390625 22.4140625 C64.67761719 22.27742188 63.85132813 22.14078125 63 22 C62.67 21.34 62.34 20.68 62 20 C59.42048126 19.30906104 59.42048126 19.30906104 56.4375 18.875 C55.42558594 18.70742188 54.41367187 18.53984375 53.37109375 18.3671875 C52.58863281 18.24601562 51.80617188 18.12484375 51 18 C51 17.34 51 16.68 51 16 C49.60974609 15.92652344 49.60974609 15.92652344 48.19140625 15.8515625 C46.99386719 15.77679688 45.79632812 15.70203125 44.5625 15.625 C43.36753906 15.55539062 42.17257812 15.48578125 40.94140625 15.4140625 C39.97074219 15.27742188 39.00007812 15.14078125 38 15 C37.67 14.34 37.34 13.68 37 13 C34.70137888 12.58154053 32.38394179 12.26396089 30.0625 12 C23.22043628 11.22043628 23.22043628 11.22043628 21 9 C18.59879184 8.47627048 18.59879184 8.47627048 15.80859375 8.21875 C14.26848633 8.03892578 14.26848633 8.03892578 12.69726562 7.85546875 C10.52022816 7.61806862 8.34314458 7.38109093 6.16601562 7.14453125 C4.6278418 6.96470703 4.6278418 6.96470703 3.05859375 6.78125 C2.11298584 6.67876953 1.16737793 6.57628906 0.19311523 6.47070312 C-0.89247681 6.23770508 -0.89247681 6.23770508 -2 6 C-2.33 5.34 -2.66 4.68 -3 4 C-2.67 3.34 -2.34 2.68 -2 2 C-1.34 2 -0.68 2 0 2 C0 1.34 0 0.68 0 0 Z " fill="#000000" transform="translate(578,340)"/>
<path d="M0 0 C16.54823355 14.06127045 27.6329089 35.2861226 30.296875 56.8515625 C31.40168723 76.86714156 29.83709511 93.94863056 20.296875 111.8515625 C19.63751953 113.12193359 19.63751953 113.12193359 18.96484375 114.41796875 C7.53150854 134.94525358 -11.32735466 149.00991339 -33.453125 156.2265625 C-59.61011788 163.46215661 -84.71660942 160.13270221 -108.4375 146.92578125 C-129.32867144 133.65638886 -143.16622203 113.4030149 -149.578125 89.6640625 C-154.57999722 63.3967455 -150.09773095 38.55225508 -135.265625 16.4765625 C-120.27567567 -3.66723458 -100.25923351 -16.9050233 -75.453125 -21.3984375 C-47.53111829 -25.12360907 -21.81711934 -17.95037475 0 0 Z " fill="#000000" transform="translate(600.703125,471.1484375)"/>
</svg>
