<svg version="1.2" xmlns="http://www.w3.org/2000/svg" viewBox="0 0 1080 1080" width="1080" height="1080">
	<style>
		.s0 { fill: #000000 } 
	</style>
	<g id="Layer 1">
		<g id="&lt;Group&gt;">
			<path id="&lt;Path&gt;" class="s0" d="m335.84 695.43l-48.72-15.75c-25.99-8.4-50.2-20.93-73.24-35.39-31.73-19.92-60.92-49.21-65.63-87.28l-0.83-14.95 0.79-12.1c0.38-5.67 2.01-11.52 3.73-17.1 10.73-34.72 37.37-70.23 63.08-95.77l11.09-11.01 16.57-15.4 31.86-27.2c46.05-39.33 140.7-98.37 195.56-129.29l44.29-24.97 137.09-70.55-61.58 46.22-45.18 35.91c-40.38 32.1-91.84 79.75-127.2 117.71-23.13 24.83-44.57 50.12-63.95 77.89l-19.7 30.36-11.92 22.16c-11.17 20.77-18.35 42.63-22.03 66.03-5.89 37.49 2.87 74.73 27.66 103.53l18.37 18.65c40.31 34.13 93.17 51.8 144.59 66.05-5.06 1.44-10.22 0.93-15.69 0.1-32.69-4.93-64.89-9.23-96.85-17.25z"/>
			<path id="&lt;Path&gt;" class="s0" d="m527.82 882.25l-70.59 39.26 54.68-44.55 36.75-31.29 37.37-33.68 22.6-21.36 30.8-31.14 18.63-19.59c37.51-39.42 82.89-97.95 107.36-146.52 13.59-26.98 24.23-55.02 27.2-84.92l0.18-25.57c-1.33-23.59-10.07-45.78-24.04-64.56-14-18.85-31.66-32.86-51.97-44.24-16.07-9.01-31.65-16.93-49.09-22.75l-20.23-6.76-11.43-3.41-13.5-3.64-14.96-3.8-14.85-3.2c1.86-1.34 4.27-2.11 6.39-1.9 34.71 3.56 68.84 6.48 103.03 13.2l24.42 4.8 20.63 4.33 35.32 9.42 14.03 4c25.6 7.29 49.8 17.99 73.13 30.83 26.01 14.32 47.81 31.8 62.71 57.38 9.08 15.6 12.52 32.4 11.83 50.44-0.28 7.67-0.85 14.72-2.86 22.33-5.51 20.92-14.98 39.91-27.05 57.96-10.84 16.21-22.03 31.38-35.84 45.21l-37.96 38c-19.09 19.11-39.91 35.21-61.17 51.68l-13.61 10.54-23.81 17.35c-35.09 25.57-70.5 49.37-107.38 72.29l-38.94 24.2z"/>
			<path id="&lt;Path&gt;" class="s0" d="m534.45 615.05c-32.7-3.09-60.11-23.92-72.73-51.12-14.78-31.87-10.83-67.44 9.91-94.11 24.16-31.08 64.52-43.16 101.65-30.3 35.01 12.13 59.56 45.17 60.56 83.49 1.4 53.87-44.85 97.2-99.39 92.04z"/>
		</g>
	</g>
</svg>